<svg xmlns="http://www.w3.org/2000/svg" width="1080" height="1920" viewBox="0 0 1080 1920">
  <defs>
    <style>
      .cls-1, .cls-2, .cls-3, .cls-6 {
        fill: #fff;
      }

      .cls-1, .cls-4, .cls-5 {
        stroke: #202020;
      }

      .cls-1, .cls-2, .cls-3, .cls-4, .cls-5, .cls-6 {
        stroke-width: 1px;
      }

      .cls-1, .cls-2, .cls-5, .cls-6 {
        fill-rule: evenodd;
      }

      .cls-2 {
        stroke: #101010;
      }

      .cls-3 {
        stroke: #252526;
      }

      .cls-4 {
        fill: #252526;
      }

      .cls-5 {
        fill: #565759;
      }

      .cls-6 {
        stroke: #000;
      }
    </style>
  </defs>
  <g id="N치vrhov치_plocha_1" data-name="N치vrhov치 plocha 1">
    <g id="Astronaut">
      <path id="Torso" class="cls-1" d="M304.559,620.5H776.441a100,100,0,0,1,100,100v591a70,70,0,0,1-70,70H274.559a70,70,0,0,1-70-70v-591A100,100,0,0,1,304.559,620.5Z"/>
      <g id="Head">
        <g id="Helm">
          <path id="Helm_ear_R" data-name="Helm ear R" class="cls-2" d="M786,395.335a19.857,19.857,0,0,1,19.857,19.857v65.616a19.857,19.857,0,0,1-39.714,0V415.192A19.857,19.857,0,0,1,786,395.335Z"/>
          <path id="Helm_ear_L" data-name="Helm ear L" class="cls-2" d="M294.844,396.991h0.312a19.858,19.858,0,0,1,19.858,19.858v65.3a19.858,19.858,0,0,1-19.858,19.858h-0.312a19.858,19.858,0,0,1-19.858-19.858v-65.3A19.858,19.858,0,0,1,294.844,396.991Z"/>
          <circle id="Helm-2" data-name="Helm" class="cls-3" cx="540.5" cy="449.5" r="245.5"/>
          <g id="Visor">
            <circle id="Visor-2" data-name="Visor" class="cls-4" cx="540.5" cy="449.5" r="220.781"/>
            <path id="Visor_light" data-name="Visor light" class="cls-5" d="M540.8,238.711c107.434,1.959,198.5,82.478,203.358,178.025,1.358,48.671-21.534,90.261-58.511,110.836-37,22.012-88.076,23.009-143.543,23.69-55.292-.868-107.206-1.816-144.806-23.725-37.62-20.475-60.926-61.912-59.454-110.663C343.329,321.382,433.5,239.534,540.8,238.711Z"/>
          </g>
        </g>
      </g>
      <g id="Arms">
        <path id="Arm_L" data-name="Arm L" class="cls-6" d="M113,845c24.853,0,45,35.62,45,79.56s-20.147,79.56-45,79.56S68,968.5,68,924.56,88.147,845,113,845Z"/>
        <path id="Arm_R" data-name="Arm R" class="cls-6" d="M967,845c24.853,0,45,35.62,45,79.56s-20.147,79.56-45,79.56-45-35.62-45-79.56S942.147,845,967,845Z"/>
      </g>
    </g>
  </g>
</svg>
